<mxfile host="app.diagrams.net" modified="2024-04-22T17:14:31.679Z" agent="Mozilla/5.0 (Macintosh; Intel Mac OS X 10_15_7) AppleWebKit/537.36 (KHTML, like Gecko) Chrome/123.0.0.0 Safari/537.36" version="24.2.7" etag="W-LSkLS-Ie6B6Qe1ZFsg" type="device">
  <diagram name="Page-0" id="Page-0">
    <mxGraphModel dx="3042" dy="581" grid="1" gridSize="10" guides="1" tooltips="1" connect="1" arrows="1" fold="1" page="1" pageScale="1" pageWidth="1307" pageHeight="583" math="0" shadow="0">
      <root>
        <mxCell id="0" />
        <mxCell id="1" parent="0" />
        <mxCell id="8RHk4infdJAgUXuqetar-19" value="" style="rounded=0;whiteSpace=wrap;html=1;" vertex="1" parent="1">
          <mxGeometry x="790" y="640" width="400" height="160" as="geometry" />
        </mxCell>
        <mxCell id="8RHk4infdJAgUXuqetar-12" value="" style="rounded=0;whiteSpace=wrap;html=1;" vertex="1" parent="1">
          <mxGeometry x="360" y="640" width="400" height="160" as="geometry" />
        </mxCell>
        <mxCell id="8RHk4infdJAgUXuqetar-3" value="" style="rounded=0;whiteSpace=wrap;html=1;" vertex="1" parent="1">
          <mxGeometry x="80" y="640" width="200" height="160" as="geometry" />
        </mxCell>
        <mxCell id="8RHk4infdJAgUXuqetar-15" style="edgeStyle=orthogonalEdgeStyle;rounded=0;orthogonalLoop=1;jettySize=auto;html=1;exitX=1;exitY=0.5;exitDx=0;exitDy=0;entryX=0;entryY=0.5;entryDx=0;entryDy=0;" edge="1" parent="1" source="8RHk4infdJAgUXuqetar-2" target="8RHk4infdJAgUXuqetar-11">
          <mxGeometry relative="1" as="geometry" />
        </mxCell>
        <mxCell id="8RHk4infdJAgUXuqetar-30" style="edgeStyle=orthogonalEdgeStyle;rounded=0;orthogonalLoop=1;jettySize=auto;html=1;exitX=0.5;exitY=1;exitDx=0;exitDy=0;entryX=0.5;entryY=0;entryDx=0;entryDy=0;" edge="1" parent="1" source="8RHk4infdJAgUXuqetar-2" target="8RHk4infdJAgUXuqetar-23">
          <mxGeometry relative="1" as="geometry" />
        </mxCell>
        <mxCell id="8RHk4infdJAgUXuqetar-2" value="Client UI" style="rounded=0;whiteSpace=wrap;html=1;fillColor=#dae8fc;strokeColor=#6c8ebf;" vertex="1" parent="1">
          <mxGeometry x="120" y="700" width="120" height="80" as="geometry" />
        </mxCell>
        <mxCell id="8RHk4infdJAgUXuqetar-5" value="&lt;font style=&quot;font-size: 16px;&quot;&gt;View&lt;/font&gt;" style="text;html=1;align=center;verticalAlign=middle;resizable=0;points=[];autosize=1;strokeColor=none;fillColor=none;" vertex="1" parent="1">
          <mxGeometry x="150" y="650" width="60" height="30" as="geometry" />
        </mxCell>
        <mxCell id="8RHk4infdJAgUXuqetar-7" style="edgeStyle=orthogonalEdgeStyle;rounded=0;orthogonalLoop=1;jettySize=auto;html=1;entryX=0;entryY=0.5;entryDx=0;entryDy=0;" edge="1" parent="1" source="8RHk4infdJAgUXuqetar-6" target="8RHk4infdJAgUXuqetar-2">
          <mxGeometry relative="1" as="geometry" />
        </mxCell>
        <mxCell id="8RHk4infdJAgUXuqetar-6" value="User" style="shape=umlActor;verticalLabelPosition=bottom;verticalAlign=top;html=1;outlineConnect=0;" vertex="1" parent="1">
          <mxGeometry x="-10" y="710" width="30" height="60" as="geometry" />
        </mxCell>
        <mxCell id="8RHk4infdJAgUXuqetar-39" value="" style="edgeStyle=orthogonalEdgeStyle;rounded=0;orthogonalLoop=1;jettySize=auto;html=1;" edge="1" parent="1" source="8RHk4infdJAgUXuqetar-10" target="8RHk4infdJAgUXuqetar-35">
          <mxGeometry relative="1" as="geometry" />
        </mxCell>
        <mxCell id="8RHk4infdJAgUXuqetar-48" style="edgeStyle=orthogonalEdgeStyle;rounded=0;orthogonalLoop=1;jettySize=auto;html=1;exitX=1;exitY=0.5;exitDx=0;exitDy=0;entryX=0;entryY=0.5;entryDx=0;entryDy=0;" edge="1" parent="1" source="8RHk4infdJAgUXuqetar-10" target="8RHk4infdJAgUXuqetar-22">
          <mxGeometry relative="1" as="geometry" />
        </mxCell>
        <mxCell id="8RHk4infdJAgUXuqetar-10" value="&lt;b&gt;REST API&lt;/b&gt;&lt;br&gt;(CupboardController)" style="rounded=0;whiteSpace=wrap;html=1;fillColor=#dae8fc;strokeColor=#6c8ebf;" vertex="1" parent="1">
          <mxGeometry x="590" y="700" width="120" height="80" as="geometry" />
        </mxCell>
        <mxCell id="8RHk4infdJAgUXuqetar-16" style="edgeStyle=orthogonalEdgeStyle;rounded=0;orthogonalLoop=1;jettySize=auto;html=1;exitX=1;exitY=0.5;exitDx=0;exitDy=0;entryX=0;entryY=0.5;entryDx=0;entryDy=0;" edge="1" parent="1" source="8RHk4infdJAgUXuqetar-11" target="8RHk4infdJAgUXuqetar-10">
          <mxGeometry relative="1" as="geometry" />
        </mxCell>
        <mxCell id="8RHk4infdJAgUXuqetar-33" style="edgeStyle=orthogonalEdgeStyle;rounded=0;orthogonalLoop=1;jettySize=auto;html=1;exitX=0.5;exitY=1;exitDx=0;exitDy=0;entryX=1;entryY=0.5;entryDx=0;entryDy=0;" edge="1" parent="1" source="8RHk4infdJAgUXuqetar-11" target="8RHk4infdJAgUXuqetar-23">
          <mxGeometry relative="1" as="geometry" />
        </mxCell>
        <mxCell id="8RHk4infdJAgUXuqetar-11" value="Need Service" style="rounded=0;whiteSpace=wrap;html=1;fillColor=#dae8fc;strokeColor=#6c8ebf;" vertex="1" parent="1">
          <mxGeometry x="410" y="700" width="120" height="80" as="geometry" />
        </mxCell>
        <mxCell id="8RHk4infdJAgUXuqetar-13" value="&lt;font style=&quot;font-size: 16px;&quot;&gt;ViewModel&lt;/font&gt;" style="text;html=1;align=center;verticalAlign=middle;resizable=0;points=[];autosize=1;strokeColor=none;fillColor=none;" vertex="1" parent="1">
          <mxGeometry x="510" y="650" width="100" height="30" as="geometry" />
        </mxCell>
        <mxCell id="8RHk4infdJAgUXuqetar-17" value="Network&amp;nbsp;&lt;div&gt;Connection&lt;/div&gt;" style="text;html=1;align=center;verticalAlign=middle;resizable=0;points=[];autosize=1;strokeColor=none;fillColor=none;" vertex="1" parent="1">
          <mxGeometry x="280" y="700" width="80" height="40" as="geometry" />
        </mxCell>
        <mxCell id="8RHk4infdJAgUXuqetar-20" value="&lt;span style=&quot;font-size: 16px;&quot;&gt;Model&lt;/span&gt;" style="text;html=1;align=center;verticalAlign=middle;resizable=0;points=[];autosize=1;strokeColor=none;fillColor=none;" vertex="1" parent="1">
          <mxGeometry x="955" y="650" width="70" height="30" as="geometry" />
        </mxCell>
        <mxCell id="8RHk4infdJAgUXuqetar-44" style="edgeStyle=orthogonalEdgeStyle;rounded=0;orthogonalLoop=1;jettySize=auto;html=1;entryX=0.5;entryY=0;entryDx=0;entryDy=0;" edge="1" parent="1" source="8RHk4infdJAgUXuqetar-22" target="8RHk4infdJAgUXuqetar-37">
          <mxGeometry relative="1" as="geometry" />
        </mxCell>
        <mxCell id="8RHk4infdJAgUXuqetar-49" style="edgeStyle=orthogonalEdgeStyle;rounded=0;orthogonalLoop=1;jettySize=auto;html=1;exitX=1;exitY=0.5;exitDx=0;exitDy=0;entryX=0;entryY=0.5;entryDx=0;entryDy=0;" edge="1" parent="1" source="8RHk4infdJAgUXuqetar-22" target="8RHk4infdJAgUXuqetar-34">
          <mxGeometry relative="1" as="geometry" />
        </mxCell>
        <mxCell id="8RHk4infdJAgUXuqetar-22" value="&lt;b&gt;Model&lt;/b&gt;&lt;br&gt;Need" style="rounded=0;whiteSpace=wrap;html=1;fillColor=#dae8fc;strokeColor=#6c8ebf;" vertex="1" parent="1">
          <mxGeometry x="835" y="700" width="120" height="80" as="geometry" />
        </mxCell>
        <mxCell id="8RHk4infdJAgUXuqetar-31" style="edgeStyle=orthogonalEdgeStyle;rounded=0;orthogonalLoop=1;jettySize=auto;html=1;exitX=0.5;exitY=1;exitDx=0;exitDy=0;entryX=0.5;entryY=0;entryDx=0;entryDy=0;" edge="1" parent="1" source="8RHk4infdJAgUXuqetar-23" target="8RHk4infdJAgUXuqetar-28">
          <mxGeometry relative="1" as="geometry" />
        </mxCell>
        <mxCell id="8RHk4infdJAgUXuqetar-23" value="Angular &amp;amp; Typescript" style="rounded=0;whiteSpace=wrap;html=1;fillColor=#e1d5e7;strokeColor=#9673a6;" vertex="1" parent="1">
          <mxGeometry x="120" y="860" width="120" height="80" as="geometry" />
        </mxCell>
        <mxCell id="8RHk4infdJAgUXuqetar-24" value="Frameworks" style="text;html=1;align=center;verticalAlign=middle;resizable=0;points=[];autosize=1;strokeColor=none;fillColor=none;" vertex="1" parent="1">
          <mxGeometry x="-15" y="888" width="90" height="30" as="geometry" />
        </mxCell>
        <mxCell id="8RHk4infdJAgUXuqetar-25" value="Platform" style="text;html=1;align=center;verticalAlign=middle;resizable=0;points=[];autosize=1;strokeColor=none;fillColor=none;" vertex="1" parent="1">
          <mxGeometry x="-5" y="1020" width="70" height="30" as="geometry" />
        </mxCell>
        <mxCell id="8RHk4infdJAgUXuqetar-26" value="OS/Hardware" style="text;html=1;align=center;verticalAlign=middle;resizable=0;points=[];autosize=1;strokeColor=none;fillColor=none;" vertex="1" parent="1">
          <mxGeometry x="-20" y="1155" width="100" height="30" as="geometry" />
        </mxCell>
        <mxCell id="8RHk4infdJAgUXuqetar-32" style="edgeStyle=orthogonalEdgeStyle;rounded=0;orthogonalLoop=1;jettySize=auto;html=1;exitX=0.5;exitY=1;exitDx=0;exitDy=0;entryX=0.5;entryY=0;entryDx=0;entryDy=0;" edge="1" parent="1" source="8RHk4infdJAgUXuqetar-28" target="8RHk4infdJAgUXuqetar-29">
          <mxGeometry relative="1" as="geometry" />
        </mxCell>
        <mxCell id="8RHk4infdJAgUXuqetar-28" value="Any Browser" style="rounded=0;whiteSpace=wrap;html=1;fillColor=#e1d5e7;strokeColor=#9673a6;" vertex="1" parent="1">
          <mxGeometry x="120" y="995" width="120" height="80" as="geometry" />
        </mxCell>
        <mxCell id="8RHk4infdJAgUXuqetar-29" value="Any OS/HW" style="rounded=0;whiteSpace=wrap;html=1;fillColor=#e1d5e7;strokeColor=#9673a6;" vertex="1" parent="1">
          <mxGeometry x="120" y="1130" width="120" height="80" as="geometry" />
        </mxCell>
        <mxCell id="8RHk4infdJAgUXuqetar-52" style="edgeStyle=orthogonalEdgeStyle;rounded=0;orthogonalLoop=1;jettySize=auto;html=1;exitX=1;exitY=0.5;exitDx=0;exitDy=0;entryX=0;entryY=0.5;entryDx=0;entryDy=0;" edge="1" parent="1" source="8RHk4infdJAgUXuqetar-34" target="8RHk4infdJAgUXuqetar-50">
          <mxGeometry relative="1" as="geometry" />
        </mxCell>
        <mxCell id="8RHk4infdJAgUXuqetar-34" value="&lt;b&gt;Persistence&lt;/b&gt;&lt;div&gt;CupboardDAO&lt;br&gt;&lt;div&gt;CupboardFileDAO&lt;/div&gt;&lt;/div&gt;" style="rounded=0;whiteSpace=wrap;html=1;fillColor=#dae8fc;strokeColor=#6c8ebf;" vertex="1" parent="1">
          <mxGeometry x="1025" y="700" width="120" height="80" as="geometry" />
        </mxCell>
        <mxCell id="8RHk4infdJAgUXuqetar-35" value="Spring (Embedded Tomcat)" style="rounded=0;whiteSpace=wrap;html=1;fillColor=#e1d5e7;strokeColor=#9673a6;" vertex="1" parent="1">
          <mxGeometry x="590" y="860" width="120" height="80" as="geometry" />
        </mxCell>
        <mxCell id="8RHk4infdJAgUXuqetar-46" style="edgeStyle=orthogonalEdgeStyle;rounded=0;orthogonalLoop=1;jettySize=auto;html=1;exitX=0.5;exitY=1;exitDx=0;exitDy=0;entryX=0.396;entryY=-0.025;entryDx=0;entryDy=0;entryPerimeter=0;" edge="1" parent="1" source="8RHk4infdJAgUXuqetar-37" target="8RHk4infdJAgUXuqetar-38">
          <mxGeometry relative="1" as="geometry" />
        </mxCell>
        <mxCell id="8RHk4infdJAgUXuqetar-37" value="Java" style="rounded=0;whiteSpace=wrap;html=1;fillColor=#e1d5e7;strokeColor=#9673a6;" vertex="1" parent="1">
          <mxGeometry x="590" y="995" width="610" height="80" as="geometry" />
        </mxCell>
        <mxCell id="8RHk4infdJAgUXuqetar-38" value="Any OS/HW" style="rounded=0;whiteSpace=wrap;html=1;fillColor=#e1d5e7;strokeColor=#9673a6;" vertex="1" parent="1">
          <mxGeometry x="590" y="1130" width="770" height="80" as="geometry" />
        </mxCell>
        <mxCell id="8RHk4infdJAgUXuqetar-42" style="edgeStyle=orthogonalEdgeStyle;rounded=0;orthogonalLoop=1;jettySize=auto;html=1;exitX=0.5;exitY=1;exitDx=0;exitDy=0;entryX=0.098;entryY=-0.004;entryDx=0;entryDy=0;entryPerimeter=0;" edge="1" parent="1" source="8RHk4infdJAgUXuqetar-35" target="8RHk4infdJAgUXuqetar-37">
          <mxGeometry relative="1" as="geometry" />
        </mxCell>
        <mxCell id="8RHk4infdJAgUXuqetar-43" value="" style="edgeStyle=orthogonalEdgeStyle;rounded=0;orthogonalLoop=1;jettySize=auto;html=1;entryX=0.079;entryY=-0.024;entryDx=0;entryDy=0;entryPerimeter=0;" edge="1" parent="1" target="8RHk4infdJAgUXuqetar-38">
          <mxGeometry relative="1" as="geometry">
            <mxPoint x="652" y="1075" as="sourcePoint" />
            <Array as="points">
              <mxPoint x="651" y="1075" />
            </Array>
          </mxGeometry>
        </mxCell>
        <mxCell id="8RHk4infdJAgUXuqetar-45" style="edgeStyle=orthogonalEdgeStyle;rounded=0;orthogonalLoop=1;jettySize=auto;html=1;exitX=0.5;exitY=1;exitDx=0;exitDy=0;entryX=0.81;entryY=0.003;entryDx=0;entryDy=0;entryPerimeter=0;" edge="1" parent="1" source="8RHk4infdJAgUXuqetar-34" target="8RHk4infdJAgUXuqetar-37">
          <mxGeometry relative="1" as="geometry">
            <mxPoint x="1085" y="990" as="targetPoint" />
          </mxGeometry>
        </mxCell>
        <mxCell id="8RHk4infdJAgUXuqetar-47" style="edgeStyle=orthogonalEdgeStyle;rounded=0;orthogonalLoop=1;jettySize=auto;html=1;exitX=0.814;exitY=0.996;exitDx=0;exitDy=0;entryX=0.645;entryY=-0.025;entryDx=0;entryDy=0;entryPerimeter=0;exitPerimeter=0;" edge="1" parent="1" source="8RHk4infdJAgUXuqetar-37" target="8RHk4infdJAgUXuqetar-38">
          <mxGeometry relative="1" as="geometry" />
        </mxCell>
        <mxCell id="8RHk4infdJAgUXuqetar-50" value="&lt;b&gt;Storage&lt;/b&gt;" style="rounded=0;whiteSpace=wrap;html=1;fillColor=#dae8fc;strokeColor=#6c8ebf;" vertex="1" parent="1">
          <mxGeometry x="1240" y="700" width="120" height="80" as="geometry" />
        </mxCell>
        <mxCell id="8RHk4infdJAgUXuqetar-53" value="File&amp;nbsp;&lt;div&gt;I/O&lt;/div&gt;" style="text;html=1;align=center;verticalAlign=middle;resizable=0;points=[];autosize=1;strokeColor=none;fillColor=none;" vertex="1" parent="1">
          <mxGeometry x="1190" y="720" width="50" height="40" as="geometry" />
        </mxCell>
        <mxCell id="8RHk4infdJAgUXuqetar-56" style="edgeStyle=orthogonalEdgeStyle;rounded=0;orthogonalLoop=1;jettySize=auto;html=1;exitX=0.5;exitY=1;exitDx=0;exitDy=0;entryX=0.923;entryY=0.005;entryDx=0;entryDy=0;entryPerimeter=0;" edge="1" parent="1" source="8RHk4infdJAgUXuqetar-50" target="8RHk4infdJAgUXuqetar-38">
          <mxGeometry relative="1" as="geometry" />
        </mxCell>
        <mxCell id="8RHk4infdJAgUXuqetar-58" value="" style="rounded=0;whiteSpace=wrap;html=1;" vertex="1" parent="1">
          <mxGeometry x="790" y="1330" width="400" height="160" as="geometry" />
        </mxCell>
        <mxCell id="8RHk4infdJAgUXuqetar-59" value="" style="rounded=0;whiteSpace=wrap;html=1;" vertex="1" parent="1">
          <mxGeometry x="360" y="1330" width="400" height="160" as="geometry" />
        </mxCell>
        <mxCell id="8RHk4infdJAgUXuqetar-60" value="" style="rounded=0;whiteSpace=wrap;html=1;" vertex="1" parent="1">
          <mxGeometry x="80" y="1330" width="200" height="160" as="geometry" />
        </mxCell>
        <mxCell id="8RHk4infdJAgUXuqetar-61" style="edgeStyle=orthogonalEdgeStyle;rounded=0;orthogonalLoop=1;jettySize=auto;html=1;exitX=1;exitY=0.5;exitDx=0;exitDy=0;entryX=0;entryY=0.5;entryDx=0;entryDy=0;" edge="1" parent="1" source="8RHk4infdJAgUXuqetar-63" target="8RHk4infdJAgUXuqetar-72">
          <mxGeometry relative="1" as="geometry" />
        </mxCell>
        <mxCell id="8RHk4infdJAgUXuqetar-62" style="edgeStyle=orthogonalEdgeStyle;rounded=0;orthogonalLoop=1;jettySize=auto;html=1;exitX=0.5;exitY=1;exitDx=0;exitDy=0;entryX=0.5;entryY=0;entryDx=0;entryDy=0;" edge="1" parent="1" source="8RHk4infdJAgUXuqetar-63" target="8RHk4infdJAgUXuqetar-80">
          <mxGeometry relative="1" as="geometry" />
        </mxCell>
        <mxCell id="8RHk4infdJAgUXuqetar-63" value="Client UI" style="rounded=0;whiteSpace=wrap;html=1;fillColor=#dae8fc;strokeColor=#6c8ebf;" vertex="1" parent="1">
          <mxGeometry x="120" y="1390" width="120" height="80" as="geometry" />
        </mxCell>
        <mxCell id="8RHk4infdJAgUXuqetar-64" value="&lt;font style=&quot;font-size: 16px;&quot;&gt;View&lt;/font&gt;" style="text;html=1;align=center;verticalAlign=middle;resizable=0;points=[];autosize=1;strokeColor=none;fillColor=none;" vertex="1" parent="1">
          <mxGeometry x="150" y="1340" width="60" height="30" as="geometry" />
        </mxCell>
        <mxCell id="8RHk4infdJAgUXuqetar-65" style="edgeStyle=orthogonalEdgeStyle;rounded=0;orthogonalLoop=1;jettySize=auto;html=1;entryX=0;entryY=0.5;entryDx=0;entryDy=0;" edge="1" parent="1" source="8RHk4infdJAgUXuqetar-66" target="8RHk4infdJAgUXuqetar-63">
          <mxGeometry relative="1" as="geometry" />
        </mxCell>
        <mxCell id="8RHk4infdJAgUXuqetar-66" value="User" style="shape=umlActor;verticalLabelPosition=bottom;verticalAlign=top;html=1;outlineConnect=0;" vertex="1" parent="1">
          <mxGeometry x="-10" y="1400" width="30" height="60" as="geometry" />
        </mxCell>
        <mxCell id="8RHk4infdJAgUXuqetar-67" value="" style="edgeStyle=orthogonalEdgeStyle;rounded=0;orthogonalLoop=1;jettySize=auto;html=1;" edge="1" parent="1" source="8RHk4infdJAgUXuqetar-69" target="8RHk4infdJAgUXuqetar-89">
          <mxGeometry relative="1" as="geometry" />
        </mxCell>
        <mxCell id="8RHk4infdJAgUXuqetar-68" style="edgeStyle=orthogonalEdgeStyle;rounded=0;orthogonalLoop=1;jettySize=auto;html=1;exitX=1;exitY=0.5;exitDx=0;exitDy=0;entryX=0;entryY=0.5;entryDx=0;entryDy=0;" edge="1" parent="1" source="8RHk4infdJAgUXuqetar-69" target="8RHk4infdJAgUXuqetar-78">
          <mxGeometry relative="1" as="geometry" />
        </mxCell>
        <mxCell id="8RHk4infdJAgUXuqetar-69" value="&lt;b&gt;REST API&lt;/b&gt;&lt;br&gt;(UsersController)" style="rounded=0;whiteSpace=wrap;html=1;fillColor=#dae8fc;strokeColor=#6c8ebf;" vertex="1" parent="1">
          <mxGeometry x="590" y="1390" width="120" height="80" as="geometry" />
        </mxCell>
        <mxCell id="8RHk4infdJAgUXuqetar-70" style="edgeStyle=orthogonalEdgeStyle;rounded=0;orthogonalLoop=1;jettySize=auto;html=1;exitX=1;exitY=0.5;exitDx=0;exitDy=0;entryX=0;entryY=0.5;entryDx=0;entryDy=0;" edge="1" parent="1" source="8RHk4infdJAgUXuqetar-72" target="8RHk4infdJAgUXuqetar-69">
          <mxGeometry relative="1" as="geometry" />
        </mxCell>
        <mxCell id="8RHk4infdJAgUXuqetar-71" style="edgeStyle=orthogonalEdgeStyle;rounded=0;orthogonalLoop=1;jettySize=auto;html=1;exitX=0.5;exitY=1;exitDx=0;exitDy=0;entryX=1;entryY=0.5;entryDx=0;entryDy=0;" edge="1" parent="1" source="8RHk4infdJAgUXuqetar-72" target="8RHk4infdJAgUXuqetar-80">
          <mxGeometry relative="1" as="geometry" />
        </mxCell>
        <mxCell id="8RHk4infdJAgUXuqetar-72" value="Login Service" style="rounded=0;whiteSpace=wrap;html=1;fillColor=#dae8fc;strokeColor=#6c8ebf;" vertex="1" parent="1">
          <mxGeometry x="410" y="1390" width="120" height="80" as="geometry" />
        </mxCell>
        <mxCell id="8RHk4infdJAgUXuqetar-73" value="&lt;font style=&quot;font-size: 16px;&quot;&gt;ViewModel&lt;/font&gt;" style="text;html=1;align=center;verticalAlign=middle;resizable=0;points=[];autosize=1;strokeColor=none;fillColor=none;" vertex="1" parent="1">
          <mxGeometry x="510" y="1340" width="100" height="30" as="geometry" />
        </mxCell>
        <mxCell id="8RHk4infdJAgUXuqetar-74" value="Network&amp;nbsp;&lt;div&gt;Connection&lt;/div&gt;" style="text;html=1;align=center;verticalAlign=middle;resizable=0;points=[];autosize=1;strokeColor=none;fillColor=none;" vertex="1" parent="1">
          <mxGeometry x="280" y="1390" width="80" height="40" as="geometry" />
        </mxCell>
        <mxCell id="8RHk4infdJAgUXuqetar-75" value="&lt;span style=&quot;font-size: 16px;&quot;&gt;Model&lt;/span&gt;" style="text;html=1;align=center;verticalAlign=middle;resizable=0;points=[];autosize=1;strokeColor=none;fillColor=none;" vertex="1" parent="1">
          <mxGeometry x="955" y="1340" width="70" height="30" as="geometry" />
        </mxCell>
        <mxCell id="8RHk4infdJAgUXuqetar-76" style="edgeStyle=orthogonalEdgeStyle;rounded=0;orthogonalLoop=1;jettySize=auto;html=1;entryX=0.5;entryY=0;entryDx=0;entryDy=0;" edge="1" parent="1" source="8RHk4infdJAgUXuqetar-78" target="8RHk4infdJAgUXuqetar-91">
          <mxGeometry relative="1" as="geometry" />
        </mxCell>
        <mxCell id="8RHk4infdJAgUXuqetar-77" style="edgeStyle=orthogonalEdgeStyle;rounded=0;orthogonalLoop=1;jettySize=auto;html=1;exitX=1;exitY=0.5;exitDx=0;exitDy=0;entryX=0;entryY=0.5;entryDx=0;entryDy=0;" edge="1" parent="1" source="8RHk4infdJAgUXuqetar-78" target="8RHk4infdJAgUXuqetar-88">
          <mxGeometry relative="1" as="geometry" />
        </mxCell>
        <mxCell id="8RHk4infdJAgUXuqetar-78" value="&lt;b&gt;Model&lt;/b&gt;&lt;br&gt;User" style="rounded=0;whiteSpace=wrap;html=1;fillColor=#dae8fc;strokeColor=#6c8ebf;" vertex="1" parent="1">
          <mxGeometry x="835" y="1390" width="120" height="80" as="geometry" />
        </mxCell>
        <mxCell id="8RHk4infdJAgUXuqetar-79" style="edgeStyle=orthogonalEdgeStyle;rounded=0;orthogonalLoop=1;jettySize=auto;html=1;exitX=0.5;exitY=1;exitDx=0;exitDy=0;entryX=0.5;entryY=0;entryDx=0;entryDy=0;" edge="1" parent="1" source="8RHk4infdJAgUXuqetar-80" target="8RHk4infdJAgUXuqetar-85">
          <mxGeometry relative="1" as="geometry" />
        </mxCell>
        <mxCell id="8RHk4infdJAgUXuqetar-80" value="Angular &amp;amp; Typescript" style="rounded=0;whiteSpace=wrap;html=1;fillColor=#e1d5e7;strokeColor=#9673a6;" vertex="1" parent="1">
          <mxGeometry x="120" y="1550" width="120" height="80" as="geometry" />
        </mxCell>
        <mxCell id="8RHk4infdJAgUXuqetar-81" value="Frameworks" style="text;html=1;align=center;verticalAlign=middle;resizable=0;points=[];autosize=1;strokeColor=none;fillColor=none;" vertex="1" parent="1">
          <mxGeometry x="-15" y="1578" width="90" height="30" as="geometry" />
        </mxCell>
        <mxCell id="8RHk4infdJAgUXuqetar-82" value="Platform" style="text;html=1;align=center;verticalAlign=middle;resizable=0;points=[];autosize=1;strokeColor=none;fillColor=none;" vertex="1" parent="1">
          <mxGeometry x="-5" y="1710" width="70" height="30" as="geometry" />
        </mxCell>
        <mxCell id="8RHk4infdJAgUXuqetar-83" value="OS/Hardware" style="text;html=1;align=center;verticalAlign=middle;resizable=0;points=[];autosize=1;strokeColor=none;fillColor=none;" vertex="1" parent="1">
          <mxGeometry x="-20" y="1845" width="100" height="30" as="geometry" />
        </mxCell>
        <mxCell id="8RHk4infdJAgUXuqetar-84" style="edgeStyle=orthogonalEdgeStyle;rounded=0;orthogonalLoop=1;jettySize=auto;html=1;exitX=0.5;exitY=1;exitDx=0;exitDy=0;entryX=0.5;entryY=0;entryDx=0;entryDy=0;" edge="1" parent="1" source="8RHk4infdJAgUXuqetar-85" target="8RHk4infdJAgUXuqetar-86">
          <mxGeometry relative="1" as="geometry" />
        </mxCell>
        <mxCell id="8RHk4infdJAgUXuqetar-85" value="Any Browser" style="rounded=0;whiteSpace=wrap;html=1;fillColor=#e1d5e7;strokeColor=#9673a6;" vertex="1" parent="1">
          <mxGeometry x="120" y="1685" width="120" height="80" as="geometry" />
        </mxCell>
        <mxCell id="8RHk4infdJAgUXuqetar-86" value="Any OS/HW" style="rounded=0;whiteSpace=wrap;html=1;fillColor=#e1d5e7;strokeColor=#9673a6;" vertex="1" parent="1">
          <mxGeometry x="120" y="1820" width="120" height="80" as="geometry" />
        </mxCell>
        <mxCell id="8RHk4infdJAgUXuqetar-87" style="edgeStyle=orthogonalEdgeStyle;rounded=0;orthogonalLoop=1;jettySize=auto;html=1;exitX=1;exitY=0.5;exitDx=0;exitDy=0;entryX=0;entryY=0.5;entryDx=0;entryDy=0;" edge="1" parent="1" source="8RHk4infdJAgUXuqetar-88" target="8RHk4infdJAgUXuqetar-97">
          <mxGeometry relative="1" as="geometry" />
        </mxCell>
        <mxCell id="8RHk4infdJAgUXuqetar-88" value="&lt;b&gt;Persistence&lt;/b&gt;&lt;div&gt;UsersDAO&lt;br&gt;&lt;div&gt;UsersFileDAO&lt;/div&gt;&lt;/div&gt;" style="rounded=0;whiteSpace=wrap;html=1;fillColor=#dae8fc;strokeColor=#6c8ebf;" vertex="1" parent="1">
          <mxGeometry x="1025" y="1390" width="120" height="80" as="geometry" />
        </mxCell>
        <mxCell id="8RHk4infdJAgUXuqetar-89" value="Spring (Embedded Tomcat)" style="rounded=0;whiteSpace=wrap;html=1;fillColor=#e1d5e7;strokeColor=#9673a6;" vertex="1" parent="1">
          <mxGeometry x="590" y="1550" width="120" height="80" as="geometry" />
        </mxCell>
        <mxCell id="8RHk4infdJAgUXuqetar-90" style="edgeStyle=orthogonalEdgeStyle;rounded=0;orthogonalLoop=1;jettySize=auto;html=1;exitX=0.5;exitY=1;exitDx=0;exitDy=0;entryX=0.396;entryY=-0.025;entryDx=0;entryDy=0;entryPerimeter=0;" edge="1" parent="1" source="8RHk4infdJAgUXuqetar-91" target="8RHk4infdJAgUXuqetar-92">
          <mxGeometry relative="1" as="geometry" />
        </mxCell>
        <mxCell id="8RHk4infdJAgUXuqetar-91" value="Java" style="rounded=0;whiteSpace=wrap;html=1;fillColor=#e1d5e7;strokeColor=#9673a6;" vertex="1" parent="1">
          <mxGeometry x="590" y="1685" width="610" height="80" as="geometry" />
        </mxCell>
        <mxCell id="8RHk4infdJAgUXuqetar-92" value="Any OS/HW" style="rounded=0;whiteSpace=wrap;html=1;fillColor=#e1d5e7;strokeColor=#9673a6;" vertex="1" parent="1">
          <mxGeometry x="590" y="1820" width="770" height="80" as="geometry" />
        </mxCell>
        <mxCell id="8RHk4infdJAgUXuqetar-93" style="edgeStyle=orthogonalEdgeStyle;rounded=0;orthogonalLoop=1;jettySize=auto;html=1;exitX=0.5;exitY=1;exitDx=0;exitDy=0;entryX=0.098;entryY=-0.004;entryDx=0;entryDy=0;entryPerimeter=0;" edge="1" parent="1" source="8RHk4infdJAgUXuqetar-89" target="8RHk4infdJAgUXuqetar-91">
          <mxGeometry relative="1" as="geometry" />
        </mxCell>
        <mxCell id="8RHk4infdJAgUXuqetar-94" value="" style="edgeStyle=orthogonalEdgeStyle;rounded=0;orthogonalLoop=1;jettySize=auto;html=1;entryX=0.079;entryY=-0.024;entryDx=0;entryDy=0;entryPerimeter=0;" edge="1" parent="1" target="8RHk4infdJAgUXuqetar-92">
          <mxGeometry relative="1" as="geometry">
            <mxPoint x="652" y="1765" as="sourcePoint" />
            <Array as="points">
              <mxPoint x="651" y="1765" />
            </Array>
          </mxGeometry>
        </mxCell>
        <mxCell id="8RHk4infdJAgUXuqetar-95" style="edgeStyle=orthogonalEdgeStyle;rounded=0;orthogonalLoop=1;jettySize=auto;html=1;exitX=0.5;exitY=1;exitDx=0;exitDy=0;entryX=0.81;entryY=0.003;entryDx=0;entryDy=0;entryPerimeter=0;" edge="1" parent="1" source="8RHk4infdJAgUXuqetar-88" target="8RHk4infdJAgUXuqetar-91">
          <mxGeometry relative="1" as="geometry">
            <mxPoint x="1085" y="1680" as="targetPoint" />
          </mxGeometry>
        </mxCell>
        <mxCell id="8RHk4infdJAgUXuqetar-96" style="edgeStyle=orthogonalEdgeStyle;rounded=0;orthogonalLoop=1;jettySize=auto;html=1;exitX=0.814;exitY=0.996;exitDx=0;exitDy=0;entryX=0.645;entryY=-0.025;entryDx=0;entryDy=0;entryPerimeter=0;exitPerimeter=0;" edge="1" parent="1" source="8RHk4infdJAgUXuqetar-91" target="8RHk4infdJAgUXuqetar-92">
          <mxGeometry relative="1" as="geometry" />
        </mxCell>
        <mxCell id="8RHk4infdJAgUXuqetar-97" value="&lt;b&gt;Storage&lt;/b&gt;" style="rounded=0;whiteSpace=wrap;html=1;fillColor=#dae8fc;strokeColor=#6c8ebf;" vertex="1" parent="1">
          <mxGeometry x="1240" y="1390" width="120" height="80" as="geometry" />
        </mxCell>
        <mxCell id="8RHk4infdJAgUXuqetar-98" value="File&amp;nbsp;&lt;div&gt;I/O&lt;/div&gt;" style="text;html=1;align=center;verticalAlign=middle;resizable=0;points=[];autosize=1;strokeColor=none;fillColor=none;" vertex="1" parent="1">
          <mxGeometry x="1190" y="1410" width="50" height="40" as="geometry" />
        </mxCell>
        <mxCell id="8RHk4infdJAgUXuqetar-99" style="edgeStyle=orthogonalEdgeStyle;rounded=0;orthogonalLoop=1;jettySize=auto;html=1;exitX=0.5;exitY=1;exitDx=0;exitDy=0;entryX=0.923;entryY=0.005;entryDx=0;entryDy=0;entryPerimeter=0;" edge="1" parent="1" source="8RHk4infdJAgUXuqetar-97" target="8RHk4infdJAgUXuqetar-92">
          <mxGeometry relative="1" as="geometry" />
        </mxCell>
        <mxCell id="8RHk4infdJAgUXuqetar-100" value="" style="rounded=0;whiteSpace=wrap;html=1;" vertex="1" parent="1">
          <mxGeometry x="795" y="1980" width="400" height="160" as="geometry" />
        </mxCell>
        <mxCell id="8RHk4infdJAgUXuqetar-101" value="" style="rounded=0;whiteSpace=wrap;html=1;" vertex="1" parent="1">
          <mxGeometry x="365" y="1980" width="400" height="160" as="geometry" />
        </mxCell>
        <mxCell id="8RHk4infdJAgUXuqetar-102" value="" style="rounded=0;whiteSpace=wrap;html=1;" vertex="1" parent="1">
          <mxGeometry x="85" y="1980" width="200" height="160" as="geometry" />
        </mxCell>
        <mxCell id="8RHk4infdJAgUXuqetar-103" style="edgeStyle=orthogonalEdgeStyle;rounded=0;orthogonalLoop=1;jettySize=auto;html=1;exitX=1;exitY=0.5;exitDx=0;exitDy=0;entryX=0;entryY=0.5;entryDx=0;entryDy=0;" edge="1" parent="1" source="8RHk4infdJAgUXuqetar-105" target="8RHk4infdJAgUXuqetar-114">
          <mxGeometry relative="1" as="geometry" />
        </mxCell>
        <mxCell id="8RHk4infdJAgUXuqetar-104" style="edgeStyle=orthogonalEdgeStyle;rounded=0;orthogonalLoop=1;jettySize=auto;html=1;exitX=0.5;exitY=1;exitDx=0;exitDy=0;entryX=0.5;entryY=0;entryDx=0;entryDy=0;" edge="1" parent="1" source="8RHk4infdJAgUXuqetar-105" target="8RHk4infdJAgUXuqetar-122">
          <mxGeometry relative="1" as="geometry" />
        </mxCell>
        <mxCell id="8RHk4infdJAgUXuqetar-105" value="Client UI" style="rounded=0;whiteSpace=wrap;html=1;fillColor=#dae8fc;strokeColor=#6c8ebf;" vertex="1" parent="1">
          <mxGeometry x="125" y="2040" width="120" height="80" as="geometry" />
        </mxCell>
        <mxCell id="8RHk4infdJAgUXuqetar-106" value="&lt;font style=&quot;font-size: 16px;&quot;&gt;View&lt;/font&gt;" style="text;html=1;align=center;verticalAlign=middle;resizable=0;points=[];autosize=1;strokeColor=none;fillColor=none;" vertex="1" parent="1">
          <mxGeometry x="155" y="1990" width="60" height="30" as="geometry" />
        </mxCell>
        <mxCell id="8RHk4infdJAgUXuqetar-107" style="edgeStyle=orthogonalEdgeStyle;rounded=0;orthogonalLoop=1;jettySize=auto;html=1;entryX=0;entryY=0.5;entryDx=0;entryDy=0;" edge="1" parent="1" source="8RHk4infdJAgUXuqetar-108" target="8RHk4infdJAgUXuqetar-105">
          <mxGeometry relative="1" as="geometry" />
        </mxCell>
        <mxCell id="8RHk4infdJAgUXuqetar-108" value="User" style="shape=umlActor;verticalLabelPosition=bottom;verticalAlign=top;html=1;outlineConnect=0;" vertex="1" parent="1">
          <mxGeometry x="-5" y="2050" width="30" height="60" as="geometry" />
        </mxCell>
        <mxCell id="8RHk4infdJAgUXuqetar-109" value="" style="edgeStyle=orthogonalEdgeStyle;rounded=0;orthogonalLoop=1;jettySize=auto;html=1;" edge="1" parent="1" source="8RHk4infdJAgUXuqetar-111" target="8RHk4infdJAgUXuqetar-131">
          <mxGeometry relative="1" as="geometry" />
        </mxCell>
        <mxCell id="8RHk4infdJAgUXuqetar-110" style="edgeStyle=orthogonalEdgeStyle;rounded=0;orthogonalLoop=1;jettySize=auto;html=1;exitX=1;exitY=0.5;exitDx=0;exitDy=0;entryX=0;entryY=0.5;entryDx=0;entryDy=0;" edge="1" parent="1" source="8RHk4infdJAgUXuqetar-111" target="8RHk4infdJAgUXuqetar-120">
          <mxGeometry relative="1" as="geometry" />
        </mxCell>
        <mxCell id="8RHk4infdJAgUXuqetar-111" value="&lt;b&gt;REST API&lt;/b&gt;&lt;br&gt;(MailboxController)" style="rounded=0;whiteSpace=wrap;html=1;fillColor=#dae8fc;strokeColor=#6c8ebf;" vertex="1" parent="1">
          <mxGeometry x="595" y="2040" width="120" height="80" as="geometry" />
        </mxCell>
        <mxCell id="8RHk4infdJAgUXuqetar-112" style="edgeStyle=orthogonalEdgeStyle;rounded=0;orthogonalLoop=1;jettySize=auto;html=1;exitX=1;exitY=0.5;exitDx=0;exitDy=0;entryX=0;entryY=0.5;entryDx=0;entryDy=0;" edge="1" parent="1" source="8RHk4infdJAgUXuqetar-114" target="8RHk4infdJAgUXuqetar-111">
          <mxGeometry relative="1" as="geometry" />
        </mxCell>
        <mxCell id="8RHk4infdJAgUXuqetar-113" style="edgeStyle=orthogonalEdgeStyle;rounded=0;orthogonalLoop=1;jettySize=auto;html=1;exitX=0.5;exitY=1;exitDx=0;exitDy=0;entryX=1;entryY=0.5;entryDx=0;entryDy=0;" edge="1" parent="1" source="8RHk4infdJAgUXuqetar-114" target="8RHk4infdJAgUXuqetar-122">
          <mxGeometry relative="1" as="geometry" />
        </mxCell>
        <mxCell id="8RHk4infdJAgUXuqetar-114" value="Request Service" style="rounded=0;whiteSpace=wrap;html=1;fillColor=#dae8fc;strokeColor=#6c8ebf;" vertex="1" parent="1">
          <mxGeometry x="415" y="2040" width="120" height="80" as="geometry" />
        </mxCell>
        <mxCell id="8RHk4infdJAgUXuqetar-115" value="&lt;font style=&quot;font-size: 16px;&quot;&gt;ViewModel&lt;/font&gt;" style="text;html=1;align=center;verticalAlign=middle;resizable=0;points=[];autosize=1;strokeColor=none;fillColor=none;" vertex="1" parent="1">
          <mxGeometry x="515" y="1990" width="100" height="30" as="geometry" />
        </mxCell>
        <mxCell id="8RHk4infdJAgUXuqetar-116" value="Network&amp;nbsp;&lt;div&gt;Connection&lt;/div&gt;" style="text;html=1;align=center;verticalAlign=middle;resizable=0;points=[];autosize=1;strokeColor=none;fillColor=none;" vertex="1" parent="1">
          <mxGeometry x="285" y="2040" width="80" height="40" as="geometry" />
        </mxCell>
        <mxCell id="8RHk4infdJAgUXuqetar-117" value="&lt;span style=&quot;font-size: 16px;&quot;&gt;Model&lt;/span&gt;" style="text;html=1;align=center;verticalAlign=middle;resizable=0;points=[];autosize=1;strokeColor=none;fillColor=none;" vertex="1" parent="1">
          <mxGeometry x="960" y="1990" width="70" height="30" as="geometry" />
        </mxCell>
        <mxCell id="8RHk4infdJAgUXuqetar-118" style="edgeStyle=orthogonalEdgeStyle;rounded=0;orthogonalLoop=1;jettySize=auto;html=1;entryX=0.5;entryY=0;entryDx=0;entryDy=0;" edge="1" parent="1" source="8RHk4infdJAgUXuqetar-120" target="8RHk4infdJAgUXuqetar-133">
          <mxGeometry relative="1" as="geometry" />
        </mxCell>
        <mxCell id="8RHk4infdJAgUXuqetar-119" style="edgeStyle=orthogonalEdgeStyle;rounded=0;orthogonalLoop=1;jettySize=auto;html=1;exitX=1;exitY=0.5;exitDx=0;exitDy=0;entryX=0;entryY=0.5;entryDx=0;entryDy=0;" edge="1" parent="1" source="8RHk4infdJAgUXuqetar-120" target="8RHk4infdJAgUXuqetar-130">
          <mxGeometry relative="1" as="geometry" />
        </mxCell>
        <mxCell id="8RHk4infdJAgUXuqetar-120" value="&lt;b&gt;Model&lt;/b&gt;&lt;br&gt;HelpRequest" style="rounded=0;whiteSpace=wrap;html=1;fillColor=#dae8fc;strokeColor=#6c8ebf;" vertex="1" parent="1">
          <mxGeometry x="840" y="2040" width="120" height="80" as="geometry" />
        </mxCell>
        <mxCell id="8RHk4infdJAgUXuqetar-121" style="edgeStyle=orthogonalEdgeStyle;rounded=0;orthogonalLoop=1;jettySize=auto;html=1;exitX=0.5;exitY=1;exitDx=0;exitDy=0;entryX=0.5;entryY=0;entryDx=0;entryDy=0;" edge="1" parent="1" source="8RHk4infdJAgUXuqetar-122" target="8RHk4infdJAgUXuqetar-127">
          <mxGeometry relative="1" as="geometry" />
        </mxCell>
        <mxCell id="8RHk4infdJAgUXuqetar-122" value="Angular &amp;amp; Typescript" style="rounded=0;whiteSpace=wrap;html=1;fillColor=#e1d5e7;strokeColor=#9673a6;" vertex="1" parent="1">
          <mxGeometry x="125" y="2200" width="120" height="80" as="geometry" />
        </mxCell>
        <mxCell id="8RHk4infdJAgUXuqetar-123" value="Frameworks" style="text;html=1;align=center;verticalAlign=middle;resizable=0;points=[];autosize=1;strokeColor=none;fillColor=none;" vertex="1" parent="1">
          <mxGeometry x="-10" y="2228" width="90" height="30" as="geometry" />
        </mxCell>
        <mxCell id="8RHk4infdJAgUXuqetar-124" value="Platform" style="text;html=1;align=center;verticalAlign=middle;resizable=0;points=[];autosize=1;strokeColor=none;fillColor=none;" vertex="1" parent="1">
          <mxGeometry y="2360" width="70" height="30" as="geometry" />
        </mxCell>
        <mxCell id="8RHk4infdJAgUXuqetar-125" value="OS/Hardware" style="text;html=1;align=center;verticalAlign=middle;resizable=0;points=[];autosize=1;strokeColor=none;fillColor=none;" vertex="1" parent="1">
          <mxGeometry x="-15" y="2495" width="100" height="30" as="geometry" />
        </mxCell>
        <mxCell id="8RHk4infdJAgUXuqetar-126" style="edgeStyle=orthogonalEdgeStyle;rounded=0;orthogonalLoop=1;jettySize=auto;html=1;exitX=0.5;exitY=1;exitDx=0;exitDy=0;entryX=0.5;entryY=0;entryDx=0;entryDy=0;" edge="1" parent="1" source="8RHk4infdJAgUXuqetar-127" target="8RHk4infdJAgUXuqetar-128">
          <mxGeometry relative="1" as="geometry" />
        </mxCell>
        <mxCell id="8RHk4infdJAgUXuqetar-127" value="Any Browser" style="rounded=0;whiteSpace=wrap;html=1;fillColor=#e1d5e7;strokeColor=#9673a6;" vertex="1" parent="1">
          <mxGeometry x="125" y="2335" width="120" height="80" as="geometry" />
        </mxCell>
        <mxCell id="8RHk4infdJAgUXuqetar-128" value="Any OS/HW" style="rounded=0;whiteSpace=wrap;html=1;fillColor=#e1d5e7;strokeColor=#9673a6;" vertex="1" parent="1">
          <mxGeometry x="125" y="2470" width="120" height="80" as="geometry" />
        </mxCell>
        <mxCell id="8RHk4infdJAgUXuqetar-129" style="edgeStyle=orthogonalEdgeStyle;rounded=0;orthogonalLoop=1;jettySize=auto;html=1;exitX=1;exitY=0.5;exitDx=0;exitDy=0;entryX=0;entryY=0.5;entryDx=0;entryDy=0;" edge="1" parent="1" source="8RHk4infdJAgUXuqetar-130" target="8RHk4infdJAgUXuqetar-139">
          <mxGeometry relative="1" as="geometry" />
        </mxCell>
        <mxCell id="8RHk4infdJAgUXuqetar-130" value="&lt;b&gt;Persistence&lt;/b&gt;&lt;div&gt;MailboxDAO&lt;br&gt;&lt;div&gt;MailboxFileDAO&lt;/div&gt;&lt;/div&gt;" style="rounded=0;whiteSpace=wrap;html=1;fillColor=#dae8fc;strokeColor=#6c8ebf;" vertex="1" parent="1">
          <mxGeometry x="1030" y="2040" width="120" height="80" as="geometry" />
        </mxCell>
        <mxCell id="8RHk4infdJAgUXuqetar-131" value="Spring (Embedded Tomcat)" style="rounded=0;whiteSpace=wrap;html=1;fillColor=#e1d5e7;strokeColor=#9673a6;" vertex="1" parent="1">
          <mxGeometry x="595" y="2200" width="120" height="80" as="geometry" />
        </mxCell>
        <mxCell id="8RHk4infdJAgUXuqetar-132" style="edgeStyle=orthogonalEdgeStyle;rounded=0;orthogonalLoop=1;jettySize=auto;html=1;exitX=0.5;exitY=1;exitDx=0;exitDy=0;entryX=0.396;entryY=-0.025;entryDx=0;entryDy=0;entryPerimeter=0;" edge="1" parent="1" source="8RHk4infdJAgUXuqetar-133" target="8RHk4infdJAgUXuqetar-134">
          <mxGeometry relative="1" as="geometry" />
        </mxCell>
        <mxCell id="8RHk4infdJAgUXuqetar-133" value="Java" style="rounded=0;whiteSpace=wrap;html=1;fillColor=#e1d5e7;strokeColor=#9673a6;" vertex="1" parent="1">
          <mxGeometry x="595" y="2335" width="610" height="80" as="geometry" />
        </mxCell>
        <mxCell id="8RHk4infdJAgUXuqetar-134" value="Any OS/HW" style="rounded=0;whiteSpace=wrap;html=1;fillColor=#e1d5e7;strokeColor=#9673a6;" vertex="1" parent="1">
          <mxGeometry x="595" y="2470" width="770" height="80" as="geometry" />
        </mxCell>
        <mxCell id="8RHk4infdJAgUXuqetar-135" style="edgeStyle=orthogonalEdgeStyle;rounded=0;orthogonalLoop=1;jettySize=auto;html=1;exitX=0.5;exitY=1;exitDx=0;exitDy=0;entryX=0.098;entryY=-0.004;entryDx=0;entryDy=0;entryPerimeter=0;" edge="1" parent="1" source="8RHk4infdJAgUXuqetar-131" target="8RHk4infdJAgUXuqetar-133">
          <mxGeometry relative="1" as="geometry" />
        </mxCell>
        <mxCell id="8RHk4infdJAgUXuqetar-136" value="" style="edgeStyle=orthogonalEdgeStyle;rounded=0;orthogonalLoop=1;jettySize=auto;html=1;entryX=0.079;entryY=-0.024;entryDx=0;entryDy=0;entryPerimeter=0;" edge="1" parent="1" target="8RHk4infdJAgUXuqetar-134">
          <mxGeometry relative="1" as="geometry">
            <mxPoint x="657" y="2415" as="sourcePoint" />
            <Array as="points">
              <mxPoint x="656" y="2415" />
            </Array>
          </mxGeometry>
        </mxCell>
        <mxCell id="8RHk4infdJAgUXuqetar-137" style="edgeStyle=orthogonalEdgeStyle;rounded=0;orthogonalLoop=1;jettySize=auto;html=1;exitX=0.5;exitY=1;exitDx=0;exitDy=0;entryX=0.81;entryY=0.003;entryDx=0;entryDy=0;entryPerimeter=0;" edge="1" parent="1" source="8RHk4infdJAgUXuqetar-130" target="8RHk4infdJAgUXuqetar-133">
          <mxGeometry relative="1" as="geometry">
            <mxPoint x="1090" y="2330" as="targetPoint" />
          </mxGeometry>
        </mxCell>
        <mxCell id="8RHk4infdJAgUXuqetar-138" style="edgeStyle=orthogonalEdgeStyle;rounded=0;orthogonalLoop=1;jettySize=auto;html=1;exitX=0.814;exitY=0.996;exitDx=0;exitDy=0;entryX=0.645;entryY=-0.025;entryDx=0;entryDy=0;entryPerimeter=0;exitPerimeter=0;" edge="1" parent="1" source="8RHk4infdJAgUXuqetar-133" target="8RHk4infdJAgUXuqetar-134">
          <mxGeometry relative="1" as="geometry" />
        </mxCell>
        <mxCell id="8RHk4infdJAgUXuqetar-139" value="&lt;b&gt;Storage&lt;/b&gt;" style="rounded=0;whiteSpace=wrap;html=1;fillColor=#dae8fc;strokeColor=#6c8ebf;" vertex="1" parent="1">
          <mxGeometry x="1245" y="2040" width="120" height="80" as="geometry" />
        </mxCell>
        <mxCell id="8RHk4infdJAgUXuqetar-140" value="File&amp;nbsp;&lt;div&gt;I/O&lt;/div&gt;" style="text;html=1;align=center;verticalAlign=middle;resizable=0;points=[];autosize=1;strokeColor=none;fillColor=none;" vertex="1" parent="1">
          <mxGeometry x="1195" y="2060" width="50" height="40" as="geometry" />
        </mxCell>
        <mxCell id="8RHk4infdJAgUXuqetar-141" style="edgeStyle=orthogonalEdgeStyle;rounded=0;orthogonalLoop=1;jettySize=auto;html=1;exitX=0.5;exitY=1;exitDx=0;exitDy=0;entryX=0.923;entryY=0.005;entryDx=0;entryDy=0;entryPerimeter=0;" edge="1" parent="1" source="8RHk4infdJAgUXuqetar-139" target="8RHk4infdJAgUXuqetar-134">
          <mxGeometry relative="1" as="geometry" />
        </mxCell>
      </root>
    </mxGraphModel>
  </diagram>
</mxfile>
